<?xml version="1.0" encoding="UTF-8" standalone="no"?>
<svg
   xmlns:dc="http://purl.org/dc/elements/1.1/"
   xmlns:cc="http://creativecommons.org/ns#"
   xmlns:rdf="http://www.w3.org/1999/02/22-rdf-syntax-ns#"
   xmlns:svg="http://www.w3.org/2000/svg"
   xmlns="http://www.w3.org/2000/svg"
   id="svg45"
   viewBox="0 0 1706.9999 1706.9439"
   style="clip-rule:evenodd;fill-rule:evenodd;image-rendering:optimizeQuality;shape-rendering:geometricPrecision;text-rendering:geometricPrecision"
   version="1.1"
   height="1.7069852in"
   width="1.7069852in"
   xml:space="preserve"><metadata
     id="metadata49"><rdf:RDF><cc:Work
         rdf:about=""><dc:format>image/svg+xml</dc:format><dc:type
           rdf:resource="http://purl.org/dc/dcmitype/StillImage" /><dc:title></dc:title></cc:Work></rdf:RDF></metadata><defs
     id="defs26"><style
       id="style2"
       type="text/css"><![CDATA[
    .fil5 {fill:none}
    .fil4 {fill:black;fill-opacity:0.560784}
    .fil2 {fill:url(#id0)}
    .fil1 {fill:url(#id1)}
    .fil0 {fill:url(#id2)}
    .fil3 {fill:url(#id3)}
   ]]></style><linearGradient
       y2="8312.9004"
       x2="6106.8701"
       y1="9025.5703"
       x1="5350.1802"
       gradientUnits="userSpaceOnUse"
       id="id0"><stop
         id="stop4"
         style="stop-opacity:1; stop-color:#FF4040"
         offset="0" /><stop
         id="stop6"
         style="stop-opacity:1; stop-color:#DA3B6F"
         offset="0.458824" /><stop
         id="stop8"
         style="stop-opacity:1; stop-color:#B5369E"
         offset="1" /></linearGradient><linearGradient
       y2="8201.2803"
       x2="6201.8398"
       y1="8847.7803"
       x1="5235.2402"
       gradientUnits="userSpaceOnUse"
       id="id1"><stop
         id="stop11"
         style="stop-opacity:1; stop-color:#F48B4A"
         offset="0" /><stop
         id="stop13"
         style="stop-opacity:1; stop-color:#DB1162"
         offset="1" /></linearGradient><linearGradient
       y2="7829.7202"
       x2="5462.3799"
       y1="8705.71"
       x1="5974.7002"
       gradientUnits="userSpaceOnUse"
       id="id2"><stop
         id="stop16"
         style="stop-opacity:1; stop-color:red"
         offset="0" /><stop
         id="stop18"
         style="stop-opacity:1; stop-color:#9F22F2"
         offset="1" /></linearGradient><linearGradient
       y2="8455.2803"
       x2="6410.3101"
       y1="8991.5898"
       x1="6152.3999"
       gradientUnits="userSpaceOnUse"
       id="id3"><stop
         id="stop21"
         style="stop-opacity:1; stop-color:#80449A"
         offset="0" /><stop
         id="stop23"
         style="stop-opacity:1; stop-color:red"
         offset="1" /></linearGradient></defs><g
     transform="translate(-4993,-7414.2716)"
     id="Layer_x0020_1"><metadata
       id="CorelCorpID_0Corel-Layer" /><g
       id="_1850927658384"><g
         id="g39"><path
           style="fill:url(#id2)"
           id="path29"
           d="m 5650,8934 v 0 c 99,-247 341,-421 624,-421 59,0 116,7 170,21 l -598,-933 -853,1333 z"
           class="fil0" /><path
           style="fill:url(#id1)"
           id="path31"
           d="m 5650,8934 v 0 c 99,-247 341,-421 624,-421 59,0 116,7 170,21 l -71,-110 c -186,-153 -449,-265 -749,-300 -36,-4 -71,-7 -106,-9 l -525,819 z"
           class="fil1" /><path
           style="fill:url(#id0)"
           id="path33"
           d="m 5650,8934 v 0 c 99,-247 341,-421 624,-421 59,0 116,7 170,21 l -4,-6 c -150,-78 -333,-124 -531,-124 -331,0 -621,129 -782,321 l -86,134 c -11,24 -20,49 -28,75 z"
           class="fil2" /><path
           style="fill:url(#id3)"
           id="path35"
           d="m 5863,8653 180,281 h 657 l -256,-400 c -54,-14 -111,-21 -170,-21 -155,0 -297,52 -411,140 z"
           class="fil3" /><path
           style="fill:#000000;fill-opacity:0.56078389"
           id="path37"
           d="m 5863,8653 83,130 c 123,-131 298,-214 492,-214 10,0 19,1 29,1 l -23,-36 c -54,-14 -111,-21 -170,-21 -155,0 -297,52 -411,140 z"
           class="fil4" /></g><rect
         style="fill:none"
         id="rect41"
         height="1707"
         width="1707"
         y="7414"
         x="4993"
         class="fil5" /></g></g></svg>